<svg width="40" height="40" viewBox="0 0 40 40" fill="none" xmlns="http://www.w3.org/2000/svg">
<path d="M9.63459 21.8991L19.9457 33.1538C20.779 34.1374 20.6582 35.6111 19.676 36.4455C18.6937 37.2798 17.2219 37.1589 16.3886 36.1754L2.67676 21.2087C2.47959 21.0103 2.31981 20.778 2.20512 20.5228C2.0625 20.2055 1.99263 19.8603 2.00062 19.5125L2.00065 19.5103C2.00859 19.1633 2.0935 18.8224 2.24923 18.5122C2.26437 18.4822 2.28016 18.4525 2.29658 18.4231C2.39162 18.2529 2.50775 18.0953 2.64223 17.9542L16.7186 2.74782C17.5943 1.80188 19.07 1.74583 20.0147 2.62257C20.9594 3.49931 21.0154 4.97694 20.1398 5.92285L9.67431 17.2284H34.6676C35.9558 17.2284 37 18.274 37 19.5638C37 20.8536 35.9558 21.8991 34.6676 21.8991H9.63459V21.8991Z" fill="currentColor"/>
</svg>
