<svg width="166" height="166" viewBox="0 0 166 166" fill="none" xmlns="http://www.w3.org/2000/svg">
<g clip-path="url(#clip0_20_174)">
<path d="M76.75 135.091H58C48.8333 135.091 41.3333 142.591 41.3333 151.758V153.841H33C29.5833 153.841 26.75 156.674 26.75 160.091C26.75 163.508 29.5833 166.341 33 166.341H133C136.417 166.341 139.25 163.508 139.25 160.091C139.25 156.674 136.417 153.841 133 153.841H124.667V151.758C124.667 142.591 117.167 135.091 108 135.091H89.25V116.008C87.1667 116.258 85.0833 116.341 83 116.341C80.9167 116.341 78.8333 116.258 76.75 116.008V135.091Z" fill="currentColor"/>
<path d="M136.994 80.0001C142.494 77.9167 147.327 74.5001 151.161 70.6667C158.911 62.0834 163.994 51.8334 163.994 39.8334C163.994 27.8334 154.577 18.4167 142.577 18.4167H137.911C132.494 7.33341 121.161 -0.333252 107.994 -0.333252H57.9941C44.8275 -0.333252 33.4941 7.33341 28.0775 18.4167H23.4108C11.4108 18.4167 1.99414 27.8334 1.99414 39.8334C1.99414 51.8334 7.07747 62.0834 14.8275 70.6667C18.6608 74.5001 23.4941 77.9167 28.9941 80.0001C37.6608 101.333 58.4941 116.333 82.9941 116.333C107.494 116.333 128.327 101.333 136.994 80.0001ZM106.661 53.4167L101.494 59.7501C100.661 60.6667 100.077 62.5001 100.161 63.7501L100.661 71.9167C100.994 76.9167 97.4108 79.5001 92.7441 77.6667L85.1608 74.6667C83.9941 74.2501 81.9941 74.2501 80.8275 74.6667L73.2441 77.6667C68.5775 79.5001 64.9941 76.9167 65.3275 71.9167L65.8275 63.7501C65.9108 62.5001 65.3275 60.6667 64.4941 59.7501L59.3275 53.4167C56.0775 49.5834 57.4941 45.3334 62.3275 44.0834L70.2441 42.0834C71.4941 41.7501 72.9941 40.5834 73.6608 39.5001L78.0775 32.6667C80.8275 28.4167 85.1608 28.4167 87.9108 32.6667L92.3275 39.5001C92.9941 40.5834 94.4941 41.7501 95.7441 42.0834L103.661 44.0834C108.494 45.3334 109.911 49.5834 106.661 53.4167Z" fill="currentColor"/>
</g>
</svg>
