<svg width="40" height="40" viewBox="0 0 40 40" fill="none" xmlns="http://www.w3.org/2000/svg">
<path d="M39 20C39 25.0391 36.9982 29.8718 33.435 33.435C29.8718 36.9982 25.0391 39 20 39C14.9609 39 10.1282 36.9982 6.56497 33.435C3.00178 29.8718 1 25.0391 1 20C1 19.5801 1.16682 19.1773 1.46375 18.8804C1.76068 18.5835 2.16341 18.4167 2.58333 18.4167C3.00326 18.4167 3.40599 18.5835 3.70292 18.8804C3.99985 19.1773 4.16667 19.5801 4.16667 20C4.16667 23.1315 5.09528 26.1928 6.83506 28.7965C8.57485 31.4003 11.0477 33.4297 13.9408 34.6281C16.834 35.8265 20.0176 36.14 23.0889 35.5291C26.1603 34.9182 28.9815 33.4102 31.1959 31.1959C33.4102 28.9815 34.9182 26.1603 35.5291 23.0889C36.14 20.0176 35.8265 16.834 34.6281 13.9408C33.4297 11.0477 31.4003 8.57485 28.7965 6.83506C26.1928 5.09528 23.1315 4.16667 20 4.16667C19.5801 4.16667 19.1773 3.99985 18.8804 3.70292C18.5835 3.40599 18.4167 3.00326 18.4167 2.58333C18.4167 2.16341 18.5835 1.76068 18.8804 1.46375C19.1773 1.16682 19.5801 1 20 1C25.0374 1.00545 29.867 3.00898 33.429 6.57099C36.991 10.133 38.9946 14.9626 39 20ZM17.2719 18.4167H13.6667C13.2467 18.4167 12.844 18.5835 12.5471 18.8804C12.2501 19.1773 12.0833 19.5801 12.0833 20C12.0833 20.4199 12.2501 20.8227 12.5471 21.1196C12.844 21.4165 13.2467 21.5833 13.6667 21.5833H17.2719C17.5137 22.0033 17.8489 22.3619 18.2516 22.6315C18.6543 22.9011 19.1136 23.0743 19.594 23.1379C20.0744 23.2014 20.563 23.1535 21.0219 22.9979C21.4808 22.8422 21.8977 22.5831 22.2404 22.2404C22.5831 21.8977 22.8422 21.4808 22.9979 21.0219C23.1535 20.563 23.2014 20.0744 23.1379 19.594C23.0743 19.1136 22.9011 18.6543 22.6315 18.2516C22.3619 17.8489 22.0033 17.5137 21.5833 17.2719V12.0833C21.5833 11.6634 21.4165 11.2607 21.1196 10.9637C20.8227 10.6668 20.4199 10.5 20 10.5C19.5801 10.5 19.1773 10.6668 18.8804 10.9637C18.5835 11.2607 18.4167 11.6634 18.4167 12.0833V17.2719C17.9423 17.5479 17.5479 17.9423 17.2719 18.4167ZM3.89275 14.908C4.2059 14.908 4.51203 14.8151 4.7724 14.6412C5.03278 14.4672 5.23572 14.2199 5.35556 13.9306C5.4754 13.6413 5.50675 13.3229 5.44566 13.0158C5.38457 12.7086 5.23377 12.4265 5.01234 12.2051C4.7909 11.9836 4.50878 11.8328 4.20164 11.7718C3.89451 11.7107 3.57615 11.742 3.28683 11.8619C2.99752 11.9817 2.75024 12.1846 2.57626 12.445C2.40228 12.7054 2.30942 13.0115 2.30942 13.3247C2.30942 13.7446 2.47623 14.1473 2.77316 14.4443C3.0701 14.7412 3.47282 14.908 3.89275 14.908ZM7.68325 9.24442C7.9964 9.24442 8.30253 9.15156 8.5629 8.97758C8.82328 8.8036 9.02622 8.55632 9.14606 8.267C9.2659 7.97768 9.29725 7.65933 9.23616 7.35219C9.17507 7.04505 9.02427 6.76293 8.80284 6.5415C8.5814 6.32006 8.29928 6.16927 7.99214 6.10817C7.68501 6.04708 7.36665 6.07844 7.07733 6.19827C6.78802 6.31811 6.54074 6.52105 6.36676 6.78143C6.19278 7.04181 6.09992 7.34793 6.09992 7.66108C6.09992 8.08101 6.26673 8.48374 6.56366 8.78067C6.8606 9.0776 7.26332 9.24442 7.68325 9.24442ZM13.3167 5.49825C13.6299 5.49825 13.936 5.40539 14.1964 5.23141C14.4568 5.05743 14.6597 4.81015 14.7796 4.52083C14.8994 4.23152 14.9308 3.91316 14.8697 3.60602C14.8086 3.29889 14.6578 3.01676 14.4363 2.79533C14.2149 2.5739 13.9328 2.4231 13.6256 2.36201C13.3185 2.30091 13.0002 2.33227 12.7108 2.45211C12.4215 2.57195 12.1742 2.77489 12.0003 3.03526C11.8263 3.29564 11.7334 3.60176 11.7334 3.91492C11.7334 4.33484 11.9002 4.73757 12.1972 5.0345C12.4941 5.33143 12.8968 5.49825 13.3167 5.49825Z" fill="currentColor"/>
</svg>
