<svg width="84" height="84" viewBox="0 0 84 84" fill="none" xmlns="http://www.w3.org/2000/svg">
<path fill-rule="evenodd" clip-rule="evenodd" d="M0 41.6667C0 18.6548 18.6548 0 41.6667 0C64.6783 0 83.3333 18.6548 83.3333 41.6667C83.3333 64.6783 64.6783 83.3333 41.6667 83.3333C18.6548 83.3333 0 64.6783 0 41.6667ZM50 25C52.3012 25 54.1667 26.8655 54.1667 29.1667V54.1667C54.1667 56.4679 52.3012 58.3333 50 58.3333C47.6987 58.3333 45.8333 56.4679 45.8333 54.1667V29.1667C45.8333 26.8655 47.6987 25 50 25ZM33.3333 25C35.6346 25 37.5 26.8655 37.5 29.1667V54.1667C37.5 56.4679 35.6346 58.3333 33.3333 58.3333C31.0321 58.3333 29.1667 56.4679 29.1667 54.1667V29.1667C29.1667 26.8655 31.0322 25 33.3333 25Z" fill="currentColor"/>
</svg>
