<svg width="35" height="35" viewBox="0 0 35 35" fill="none" xmlns="http://www.w3.org/2000/svg">
<g clip-path="url(#clip0_167_85)">
<path d="M21.0034 5.74547H19.2517C19.2517 6.52048 19.7609 7.20337 20.5038 7.42444L21.0034 5.74547ZM23.3336 6.71155L22.4991 8.25171C23.1807 8.62108 24.024 8.49844 24.5723 7.95021L23.3336 6.71155ZM28.2883 11.6662L27.0496 10.4276C26.5015 10.9758 26.3789 11.8192 26.7481 12.5008L28.2883 11.6662ZM29.2544 13.9964L27.5755 14.4962C27.7966 15.239 28.4794 15.7482 29.2544 15.7482V13.9964ZM29.2544 21.0034V19.2517C28.4794 19.2517 27.7966 19.7609 27.5755 20.5038L29.2544 21.0034ZM28.2883 23.3336L26.7481 22.4991C26.3789 23.1807 26.5015 24.0242 27.0496 24.5723L28.2883 23.3336ZM23.3336 28.2883L24.5723 27.0496C24.024 26.5015 23.1807 26.3789 22.4991 26.7481L23.3336 28.2883ZM21.0034 29.2544L20.5038 27.5755C19.7609 27.7966 19.2517 28.4794 19.2517 29.2544H21.0034ZM13.9964 29.2544H15.7482C15.7482 28.4794 15.239 27.7966 14.4962 27.5755L13.9964 29.2544ZM11.6663 28.2883L12.5008 26.7481C11.8192 26.3787 10.9758 26.5013 10.4276 27.0496L11.6663 28.2883ZM6.71157 23.3336L7.95025 24.5723C8.49846 24.024 8.62112 23.1807 8.25174 22.4989L6.71157 23.3336ZM5.74549 21.0034L7.42448 20.5037C7.20341 19.7609 6.5205 19.2517 5.74549 19.2517V21.0034ZM5.74549 13.9964V15.7482C6.5205 15.7482 7.20341 15.239 7.42448 14.496L5.74549 13.9964ZM6.71157 11.6663L8.25174 12.5009C8.62112 11.8192 8.49848 10.9758 7.95025 10.4276L6.71157 11.6663ZM11.6663 6.71158L10.4276 7.95025C10.9758 8.49848 11.8192 8.62112 12.5008 8.25174L11.6663 6.71158ZM13.9964 5.74547L14.4962 7.42444C15.239 7.20337 15.7482 6.52048 15.7482 5.74547H13.9964ZM15.7482 -0.0175781C13.8133 -0.0175781 12.2447 1.55099 12.2447 3.48593H15.7482V-0.0175781ZM19.2517 -0.0175781H15.7482V3.48593H19.2517V-0.0175781ZM22.7552 3.48593C22.7552 1.55099 21.1867 -0.0175781 19.2517 -0.0175781V3.48593H22.7552ZM22.7552 5.74547V3.48593H19.2517V5.74547H22.7552ZM24.1682 5.17137C23.3282 4.71623 22.4362 4.34418 21.5032 4.06651L20.5038 7.42444C21.2017 7.63216 21.8695 7.91062 22.4991 8.25171L24.1682 5.17137ZM23.6933 3.87446L22.095 5.47287L24.5723 7.95021L26.1708 6.35181L23.6933 3.87446ZM28.6481 3.87446C27.2798 2.50626 25.0615 2.50626 23.6933 3.87446L26.1708 6.35181L28.6481 3.87446ZM31.1254 6.35183L28.6481 3.87446L26.1708 6.35181L28.6481 8.82917L31.1254 6.35183ZM31.1254 11.3065C32.4935 9.93831 32.4935 7.72001 31.1254 6.35183L28.6481 8.82917L31.1254 11.3065ZM29.5269 12.9049L31.1254 11.3065L28.6481 8.82917L27.0496 10.4276L29.5269 12.9049ZM30.9334 13.4967C30.6558 12.5637 30.2837 11.6716 29.8284 10.8316L26.7481 12.5008C27.0892 13.1303 27.3677 13.7981 27.5755 14.4962L30.9334 13.4967ZM29.2544 15.7482H31.514V12.2447H29.2544V15.7482ZM31.514 15.7482H35.0175C35.0175 13.8133 33.4489 12.2447 31.514 12.2447V15.7482ZM31.514 15.7482V19.2517H35.0175V15.7482H31.514ZM31.514 19.2517V22.7552C33.4489 22.7552 35.0175 21.1867 35.0175 19.2517H31.514ZM31.514 19.2517H29.2544V22.7552H31.514V19.2517ZM29.8284 24.1682C30.2837 23.3282 30.6558 22.4362 30.9334 21.503L27.5755 20.5038C27.3677 21.2017 27.0892 21.8695 26.7481 22.4991L29.8284 24.1682ZM31.1254 23.6934L29.5269 22.095L27.0496 24.5723L28.6481 26.1708L31.1254 23.6934ZM31.1254 28.6481C32.4935 27.2798 32.4935 25.0615 31.1254 23.6934L28.6481 26.1708L31.1254 28.6481ZM28.6481 31.1254L31.1254 28.6481L28.6481 26.1708L26.1708 28.6481L28.6481 31.1254ZM23.6933 31.1254C25.0615 32.4935 27.2798 32.4935 28.6481 31.1254L26.1708 28.6481L23.6933 31.1254ZM22.095 29.5269L23.6933 31.1254L26.1708 28.6481L24.5723 27.0496L22.095 29.5269ZM21.5032 30.9334C22.4362 30.6558 23.3282 30.2837 24.1682 29.8284L22.4991 26.7481C21.8695 27.0892 21.2017 27.3677 20.5038 27.5755L21.5032 30.9334ZM22.7552 31.514V29.2544H19.2517V31.514H22.7552ZM19.2517 35.0175C21.1867 35.0175 22.7552 33.4489 22.7552 31.514H19.2517V35.0175ZM15.7482 35.0175H19.2517V31.514H15.7482V35.0175ZM12.2447 31.514C12.2447 33.4489 13.8133 35.0175 15.7482 35.0175V31.514H12.2447ZM12.2447 29.2544V31.514H15.7482V29.2544H12.2447ZM10.8317 29.8284C11.6716 30.2837 12.5637 30.6558 13.4968 30.9334L14.4962 27.5755C13.7982 27.3677 13.1303 27.0892 12.5008 26.7481L10.8317 29.8284ZM11.3066 31.1254L12.9049 29.5269L10.4276 27.0496L8.82922 28.6479L11.3066 31.1254ZM6.35186 31.1254C7.72007 32.4935 9.93836 32.4937 11.3066 31.1254L8.82922 28.6479L6.35186 31.1254ZM3.87452 28.6479L6.35186 31.1254L8.82922 28.6479L6.35186 26.1706L3.87452 28.6479ZM3.87452 23.6933C2.50631 25.0615 2.50631 27.2798 3.87452 28.6479L6.35186 26.1706L3.87452 23.6933ZM5.47288 22.095L3.87452 23.6933L6.35186 26.1706L7.95025 24.5723L5.47288 22.095ZM4.06653 21.503C4.34421 22.4362 4.71625 23.3282 5.17141 24.1682L8.25174 22.4989C7.91066 21.8695 7.6322 21.2017 7.42448 20.5037L4.06653 21.503ZM5.74549 19.2517H3.48593V22.7552H5.74549V19.2517ZM3.48593 19.2517H-0.0175781C-0.0175781 21.1867 1.55099 22.7552 3.48593 22.7552V19.2517ZM3.48593 19.2517V15.7482H-0.0175781V19.2517H3.48593ZM3.48593 15.7482V12.2447C1.55099 12.2447 -0.0175781 13.8133 -0.0175781 15.7482H3.48593ZM3.48593 15.7482H5.74549V12.2447H3.48593V15.7482ZM5.17141 10.8317C4.71627 11.6717 4.34421 12.5637 4.06653 13.4967L7.42448 14.496C7.6322 13.7982 7.91066 13.1303 8.25174 12.5009L5.17141 10.8317ZM3.87452 11.3066L5.4729 12.905L7.95025 10.4276L6.35188 8.82924L3.87452 11.3066ZM3.87452 6.3519C2.50631 7.7201 2.50633 9.9384 3.87452 11.3066L6.35188 8.82924L3.87452 6.3519ZM6.35188 3.87455L3.87452 6.3519L6.35188 8.82924L8.82922 6.3519L6.35188 3.87455ZM11.3066 3.87455C9.93838 2.50635 7.72008 2.50635 6.35188 3.87455L8.82922 6.3519L11.3066 3.87455ZM12.9049 5.4729L11.3066 3.87455L8.82922 6.3519L10.4276 7.95025L12.9049 5.4729ZM13.4968 4.06651C12.5637 4.3442 11.6716 4.71625 10.8317 5.17143L12.5008 8.25174C13.1303 7.91064 13.7982 7.63218 14.4962 7.42444L13.4968 4.06651ZM12.2447 3.48593V5.74547H15.7482V3.48593H12.2447Z" fill="currentColor"/>
<path d="M17.4999 22.7553C20.4023 22.7553 22.7551 20.4024 22.7551 17.5C22.7551 14.5976 20.4023 12.2448 17.4999 12.2448C14.5975 12.2448 12.2446 14.5976 12.2446 17.5C12.2446 20.4024 14.5975 22.7553 17.4999 22.7553Z" stroke="currentColor" stroke-width="3.5" stroke-linecap="round" stroke-linejoin="round"/>
</g>
</svg>
