<svg width="63" height="63" viewBox="0 0 63 63" fill="none" xmlns="http://www.w3.org/2000/svg">
<path fill-rule="evenodd" clip-rule="evenodd" d="M0 31.25C0 13.9911 13.9911 0 31.25 0C48.5087 0 62.5 13.9911 62.5 31.25C62.5 48.5087 48.5087 62.5 31.25 62.5C13.9911 62.5 0 48.5087 0 31.25ZM25.9153 42.8347C24.6949 41.6144 24.6949 39.6356 25.9153 38.4153L33.0806 31.25L25.9153 24.0847C24.6949 22.8643 24.6949 20.8857 25.9153 19.6653C27.1356 18.4449 29.1144 18.4449 30.3347 19.6653L38.8216 28.1522C40.5325 29.8631 40.5325 32.6369 38.8216 34.3478L30.3347 42.8347C29.1144 44.055 27.1356 44.055 25.9153 42.8347Z" fill="currentColor"/>
</svg>
