<svg width="63" height="63" viewBox="0 0 63 63" fill="none" xmlns="http://www.w3.org/2000/svg">
<path d="M31.5 0C48.897 0 63 14.103 63 31.5C63 48.897 48.897 63 31.5 63C14.103 63 0 48.897 0 31.5C0 14.103 14.103 0 31.5 0ZM28 18.5C26.5285 18.5 25.2039 18.5759 24.0645 18.8291C22.9013 19.0876 21.8075 19.5578 20.9326 20.4326C20.0578 21.3075 19.5876 22.4013 19.3291 23.5645C19.0759 24.7039 19 26.0285 19 27.5V34.5C19 35.9714 19.0759 37.2962 19.3291 38.4355C19.5876 39.5987 20.0578 40.6924 20.9326 41.5674C21.8075 42.4422 22.9013 42.9124 24.0645 43.1709C25.2039 43.4242 26.5285 43.5 28 43.5H35C36.4714 43.5 37.7962 43.4242 38.9355 43.1709C40.0987 42.9124 41.1924 42.4422 42.0674 41.5674C42.9422 40.6924 43.4124 39.5987 43.6709 38.4355C43.9242 37.2962 44 35.9714 44 34.5V27.5C44 26.0285 43.9242 24.7039 43.6709 23.5645C43.4124 22.4013 42.9422 21.3075 42.0674 20.4326C41.1924 19.5578 40.0987 19.0876 38.9355 18.8291C37.7962 18.5759 36.4714 18.5 35 18.5H28Z" fill="currentColor"/>
</svg>
