<svg width="20" height="20" viewBox="0 0 20 20" fill="none" xmlns="http://www.w3.org/2000/svg">
<path d="M9.99999 17C10.2449 17 10.4813 17.09 10.6644 17.2527C10.8474 17.4155 10.9643 17.6397 10.993 17.883L11 18V19C10.9997 19.2549 10.9021 19.5 10.7271 19.6854C10.5522 19.8707 10.313 19.9822 10.0586 19.9972C9.80415 20.0121 9.55361 19.9293 9.35816 19.7657C9.16271 19.6021 9.03709 19.3701 9.00699 19.117L8.99999 19V18C8.99999 17.7348 9.10535 17.4804 9.29288 17.2929C9.48042 17.1054 9.73477 17 9.99999 17ZM16.313 14.91L16.407 14.993L17.107 15.693C17.2863 15.873 17.3905 16.1144 17.3982 16.3684C17.406 16.6223 17.3168 16.8697 17.1487 17.0603C16.9807 17.2508 16.7464 17.3703 16.4935 17.3944C16.2406 17.4185 15.988 17.3454 15.787 17.19L15.693 17.107L14.993 16.407C14.8204 16.2347 14.7167 16.0054 14.7015 15.762C14.6862 15.5187 14.7603 15.2781 14.9099 15.0856C15.0596 14.8931 15.2744 14.7619 15.514 14.7166C15.7536 14.6714 16.0015 14.7153 16.211 14.84L16.313 14.91ZM5.00699 14.993C5.17917 15.1652 5.2826 15.3943 5.29788 15.6373C5.31316 15.8803 5.23924 16.1206 5.08999 16.313L5.00699 16.407L4.30699 17.107C4.12703 17.2863 3.88556 17.3905 3.63161 17.3982C3.37766 17.406 3.13028 17.3168 2.93971 17.1488C2.74915 16.9807 2.62969 16.7464 2.60559 16.4935C2.5815 16.2406 2.65458 15.988 2.80999 15.787L2.89299 15.693L3.59299 14.993C3.78052 14.8055 4.03483 14.7002 4.29999 14.7002C4.56516 14.7002 4.81946 14.8055 5.00699 14.993ZM1.99999 9C2.25487 9.00028 2.50002 9.09788 2.68536 9.27285C2.8707 9.44782 2.98223 9.68695 2.99716 9.94139C3.0121 10.1958 2.92932 10.4464 2.76573 10.6418C2.60214 10.8373 2.37009 10.9629 2.11699 10.993L1.99999 11H0.999991C0.745111 10.9997 0.499959 10.9021 0.314622 10.7272C0.129286 10.5522 0.0177558 10.313 0.00281867 10.0586C-0.0121185 9.80416 0.0706654 9.55362 0.234256 9.35817C0.397846 9.16271 0.629895 9.0371 0.882991 9.007L0.999991 9H1.99999ZM19 9C19.2549 9.00028 19.5 9.09788 19.6854 9.27285C19.8707 9.44782 19.9822 9.68695 19.9972 9.94139C20.0121 10.1958 19.9293 10.4464 19.7657 10.6418C19.6021 10.8373 19.3701 10.9629 19.117 10.993L19 11H18C17.7451 10.9997 17.5 10.9021 17.3146 10.7272C17.1293 10.5522 17.0178 10.313 17.0028 10.0586C16.9879 9.80416 17.0707 9.55362 17.2343 9.35817C17.3978 9.16271 17.6299 9.0371 17.883 9.007L18 9H19ZM4.21299 2.81L4.30699 2.893L5.00699 3.593C5.18634 3.77296 5.29046 4.01443 5.29822 4.26838C5.30597 4.52233 5.21678 4.76971 5.04874 4.96028C4.88071 5.15084 4.64644 5.27031 4.39352 5.2944C4.14059 5.31849 3.88798 5.24541 3.68699 5.09L3.59299 5.007L2.89299 4.307C2.72108 4.13468 2.61792 3.90557 2.60286 3.66263C2.58779 3.41969 2.66185 3.17959 2.81115 2.98735C2.96046 2.79511 3.17475 2.66393 3.41386 2.61839C3.65297 2.57285 3.90048 2.61609 4.10999 2.74L4.21299 2.81ZM17.107 2.893C17.2792 3.06519 17.3826 3.29429 17.3979 3.53732C17.4132 3.78034 17.3392 4.0206 17.19 4.213L17.107 4.307L16.407 5.007C16.227 5.18635 15.9856 5.29047 15.7316 5.29823C15.4777 5.30598 15.2303 5.21678 15.0397 5.04875C14.8491 4.88072 14.7297 4.64645 14.7056 4.39353C14.6815 4.1406 14.7546 3.88799 14.91 3.687L14.993 3.593L15.693 2.893C15.8805 2.70553 16.1348 2.60021 16.4 2.60021C16.6652 2.60021 16.9195 2.70553 17.107 2.893ZM9.99999 0C10.2449 3.23106e-05 10.4813 0.0899562 10.6644 0.252715C10.8474 0.415475 10.9643 0.639749 10.993 0.883L11 1V2C10.9997 2.25488 10.9021 2.50003 10.7271 2.68537C10.5522 2.8707 10.313 2.98223 10.0586 2.99717C9.80415 3.01211 9.55361 2.92933 9.35816 2.76574C9.16271 2.60214 9.03709 2.3701 9.00699 2.117L8.99999 2V1C8.99999 0.734784 9.10535 0.48043 9.29288 0.292893C9.48042 0.105357 9.73477 0 9.99999 0ZM9.99999 5C10.9797 4.99994 11.9378 5.28769 12.7553 5.8275C13.5729 6.36731 14.2138 7.1354 14.5986 8.03636C14.9833 8.93733 15.0949 9.93147 14.9195 10.8953C14.744 11.8592 14.2893 12.7502 13.6118 13.4579C12.9343 14.1655 12.0638 14.6585 11.1085 14.8756C10.1532 15.0928 9.15516 15.0245 8.23833 14.6793C7.32149 14.334 6.52628 13.7271 5.95145 12.9338C5.37662 12.1405 5.04751 11.1958 5.00499 10.217L4.99999 10L5.00499 9.783C5.06091 8.49575 5.6116 7.27978 6.54221 6.38866C7.47283 5.49754 8.71153 5.00007 9.99999 5Z" fill="currentColor"/>
</svg>
