<svg width="19" height="19" viewBox="0 0 19 19" fill="none" xmlns="http://www.w3.org/2000/svg">
<path d="M9.51116 18.6736C6.93857 18.6736 4.76225 17.7832 2.98222 16.0025C1.20219 14.2218 0.311839 12.0455 0.311157 9.47359C0.311157 7.12248 1.07782 5.08213 2.61116 3.35253C4.14449 1.62293 6.10375 0.613653 8.48894 0.324705C8.71042 0.290631 8.90634 0.320616 9.07671 0.41466C9.24708 0.508705 9.38338 0.632053 9.4856 0.784705C9.58782 0.937357 9.64336 1.11625 9.65222 1.32137C9.66108 1.5265 9.59702 1.72242 9.46005 1.90915C9.17042 2.35211 8.95302 2.82063 8.80787 3.3147C8.66271 3.80878 8.59048 4.32841 8.59116 4.87359C8.59116 6.40693 9.12782 7.71026 10.2012 8.78359C11.2745 9.85693 12.5778 10.3936 14.1112 10.3936C14.6393 10.3936 15.1634 10.3169 15.6833 10.1636C16.2033 10.0103 16.6674 9.7973 17.0756 9.52471C17.263 9.40545 17.4548 9.35025 17.6511 9.35911C17.8474 9.36796 18.0218 9.41465 18.1745 9.49915C18.3449 9.58433 18.4771 9.71211 18.5711 9.88248C18.6652 10.0529 18.6948 10.2573 18.66 10.4958C18.4215 12.8469 17.4208 14.7977 15.6578 16.348C13.8948 17.8984 11.8459 18.6736 9.51116 18.6736Z" fill="currentColor"/>
</svg>
